<?xml version="1.0" encoding="UTF-8"?>
<svg id="Capa_1" data-name="Capa 1" xmlns="http://www.w3.org/2000/svg" viewBox="0 0 292.64 194.14">
  <defs>
    <style>
      .cls-1, .cls-2 {
        fill: none;
        stroke: #000;
        stroke-linecap: round;
        stroke-linejoin: round;
        stroke-width: 13px;
      }

      .cls-1, .cls-3 {
        font-family: BloomerDEMO-Regular, 'Bloomer DEMO';
        font-size: 56.72px;
      }

      .cls-4 {
        letter-spacing: -.02em;
      }

      .cls-3 {
        fill: #fff;
      }

      .cls-5 {
        fill: #f29100;
        stroke-width: 0px;
      }
    </style>
  </defs>
  <g>
    <path class="cls-2" d="m59.11,24.48c26.47-.51,44.86-.86,64.63-1.24-6.25,15.98-10.54,32.85,6.79,42.47,7.35,4.08,20.88,3.79,28.29-.4,16.82-9.49,13.05-25.96,6.81-41.74,19.38.77,37.66,1.5,56.38,2.24.42,17.61.91,37.78,1.45,60.21,16.72-5.93,32.39-14.37,42.8,2.71,3.46,5.68,3.47,16.83.14,22.67-10.02,17.54-25.7,9.71-42.81,3.08-.61,22.61-1.16,42.71-1.67,61.87-18.73.5-34.79.56-54.27,1.08,6.21-16.21,9.21-32.15-6.73-43.37-9.7-6.83-22.77-5.55-32.66,1.77-14,10.37-12.41,24.59-5.54,39.56-19.44-.93-37.04-.96-61.45-2.13,1.87-15.97,4.19-35.77,6.83-58.23-17.3,3.65-31.39,13.83-43.04-.02-3.43-4.08-5.9-10.38-5.93-15.67-.1-16.96,10.1-20.45,46.82-15.52-2.34-20.41-4.66-40.55-6.82-59.34Z"/>
    <text class="cls-1" transform="translate(112.6 117.69) scale(.95 1)"><tspan x="0" y="0">P</tspan><tspan class="cls-4" x="25.18" y="0">E</tspan><tspan x="46.62" y="0">T</tspan></text>
  </g>
  <g>
    <path class="cls-5" d="m59.11,24.48c26.47-.51,44.86-.86,64.63-1.24-6.25,15.98-10.54,32.85,6.79,42.47,7.35,4.08,20.88,3.79,28.29-.4,16.82-9.49,13.05-25.96,6.81-41.74,19.38.77,37.66,1.5,56.38,2.24.42,17.61.91,37.78,1.45,60.21,16.72-5.93,32.39-14.37,42.8,2.71,3.46,5.68,3.47,16.83.14,22.67-10.02,17.54-25.7,9.71-42.81,3.08-.61,22.61-1.16,42.71-1.67,61.87-18.73.5-34.79.56-54.27,1.08,6.21-16.21,9.21-32.15-6.73-43.37-9.7-6.83-22.77-5.55-32.66,1.77-14,10.37-12.41,24.59-5.54,39.56-19.44-.93-37.04-.96-61.45-2.13,1.87-15.97,4.19-35.77,6.83-58.23-17.3,3.65-31.39,13.83-43.04-.02-3.43-4.08-5.9-10.38-5.93-15.67-.1-16.96,10.1-20.45,46.82-15.52-2.34-20.41-4.66-40.55-6.82-59.34Z"/>
    <text class="cls-3" transform="translate(112.6 117.69) scale(.95 1)"><tspan x="0" y="0">P</tspan><tspan class="cls-4" x="25.18" y="0">E</tspan><tspan x="46.62" y="0">T</tspan></text>
  </g>
</svg>