<?xml version="1.0" encoding="UTF-8"?>
<svg id="Capa_1" data-name="Capa 1" xmlns="http://www.w3.org/2000/svg" viewBox="0 0 205.86 285.43">
  <defs>
    <style>
      .cls-1 {
        fill: #fff;
      }

      .cls-1, .cls-2 {
        stroke-width: 0px;
      }

      .cls-3 {
        fill: none;
        stroke: #000;
        stroke-linecap: round;
        stroke-linejoin: round;
        stroke-width: 13px;
      }

      .cls-2 {
        fill: #f29100;
      }
    </style>
  </defs>
  <g>
    <path class="cls-3" d="m179.62,119.8c-18.8-8.11-31.36-7.11-39.87,3.23-7.97,9.69-8.7,20.62-2.31,31.23,7.66,12.72,19.23,14.61,42.92,7.56-1.46,18.53-2.89,36.7-4.4,55.94-15.02.36-35.16.85-57.12,1.38,2.49,14.63,12.97,28.01.26,39.66-3.98,3.65-9.97,6.67-15.23,7.02-11.01.73-19.55-5.8-20.89-16.29-1.15-9,2.06-18.56,3.7-30.42-20.07-.46-39.76-.92-59.73-1.38.29-18.37.57-36.62.87-55.66,14.36,4.86,30.33,9.38,41.54-7.33,6.56-9.79,6.13-20.87-1.01-30.16-11.27-14.67-26.14-11.45-41.26-5.22.5-19.33.97-37.59,1.46-56.56,17.84-.38,37.92-.81,60.77-1.3-6.63-17.15-14.52-33.4,3.51-43.56,5.82-3.28,17.14-2.74,22.88.89,16.34,10.34,7.84,25.49,2.5,42.5,21.62.54,41.67,1.04,61.24,1.53.06,18.53.12,37.11.18,56.95Z"/>
    <g>
      <path class="cls-3" d="m112.34,194.29c-.67.25-2.91.78-4.77.87-2.01.09-3.48.74-4.71,2.35-2.33,3.04-5.54,4.64-9.31,5.01-6.83.67-11.26-5.6-8.42-12.29,1.41-3.34,2.29-6.65,2.72-10.23.91-7.51,9.66-11.24,15.73-6.75,2.41,1.78,4.96,2.65,7.86,3.26,2.15.45,4.46,1.66,6.01,3.23,3.86,3.9,2.32,9.62-2.52,13.21-1.33.99-1.91,1.1-2.58,1.35Z"/>
      <path class="cls-3" d="m86.83,162.75c.97,1.97,2.02,5.76,1.35,8.89-.99,4.66-5.37,6.65-9.45,4.18-3.68-2.24-5.69-5.53-5.53-9.92.12-3.26.95-6.32,3.08-8.89,1.74-2.09,3.86-2.4,5.73-.46,1.81,1.87,3.84,4.23,4.82,6.2Z"/>
      <path class="cls-3" d="m89.46,160.95c-.93-1.89-1.49-4.94-1.83-7.39-.33-2.31,1.04-3.72,3.33-4.06,6.4-.96,13.56,4.7,14.05,11.18.23,2.98-.44,5.72-3.31,7.24-2.88,1.52-5.62.59-7.8-1.43-1.71-1.59-3.51-3.66-4.44-5.54Z"/>
      <path class="cls-3" d="m118.06,161.86c1.72,3.51,1.76,6.38.55,9.24-.94,2.22-2.45,3.89-5,4.08-2.62.2-4.58-1.23-5.71-3.37-2.44-4.65-2.03-9.51-.1-14.21.82-2,2.78-2.39,4.85-1.32,2.67,1.38,4.37,3.69,5.41,5.58Z"/>
      <path class="cls-3" d="m70.21,186.05c-1.27-2.61-1.84-5.34-1.36-8.22.38-2.27,2.11-3.56,4.27-2.92,4.41,1.31,8.16,3.7,10.48,7.81.63,1.12.92,2.55.96,3.85.09,3.11-2.19,5.37-5.32,5.34-4.22-.04-7.16-2.15-9.04-5.86Z"/>
    </g>
    <g>
      <path class="cls-3" d="m131.02,121.89c-.67.25-2.91.78-4.77.87-2.01.09-3.48.74-4.71,2.35-2.33,3.04-5.54,4.64-9.31,5.01-6.83.67-11.26-5.6-8.42-12.29,1.41-3.34,2.29-6.65,2.72-10.23.91-7.51,9.66-11.24,15.73-6.75,2.41,1.78,4.96,2.65,7.86,3.26,2.15.45,4.46,1.66,6.01,3.23,3.86,3.9,2.32,9.62-2.52,13.21-1.33.99-1.91,1.1-2.58,1.35Z"/>
      <path class="cls-3" d="m105.51,90.35c.97,1.97,2.02,5.76,1.35,8.89-.99,4.66-5.37,6.65-9.45,4.18-3.68-2.24-5.69-5.53-5.53-9.92.12-3.26.95-6.32,3.08-8.89,1.74-2.09,3.86-2.4,5.73-.46,1.81,1.87,3.84,4.23,4.82,6.2Z"/>
      <path class="cls-3" d="m108.14,88.55c-.93-1.89-1.49-4.94-1.83-7.39-.33-2.31,1.04-3.72,3.33-4.06,6.4-.96,13.56,4.7,14.05,11.18.23,2.98-.44,5.72-3.31,7.24-2.88,1.52-5.62.59-7.8-1.43-1.71-1.59-3.51-3.66-4.44-5.54Z"/>
      <path class="cls-3" d="m136.74,89.45c1.72,3.51,1.76,6.38.55,9.24-.94,2.22-2.45,3.89-5,4.08-2.62.2-4.58-1.23-5.71-3.37-2.44-4.65-2.03-9.51-.1-14.21.82-2,2.78-2.39,4.85-1.32,2.67,1.38,4.37,3.69,5.41,5.58Z"/>
      <path class="cls-3" d="m88.89,113.65c-1.27-2.61-1.84-5.34-1.36-8.22.38-2.27,2.11-3.56,4.27-2.92,4.41,1.31,8.16,3.7,10.48,7.81.63,1.12.92,2.55.96,3.85.09,3.11-2.19,5.37-5.32,5.34-4.22-.04-7.16-2.15-9.04-5.86Z"/>
    </g>
  </g>
  <g>
    <path class="cls-2" d="m179.62,119.8c-18.8-8.11-31.36-7.11-39.87,3.23-7.97,9.69-8.7,20.62-2.31,31.23,7.66,12.72,19.23,14.61,42.92,7.56-1.46,18.53-2.89,36.7-4.4,55.94-15.02.36-35.16.85-57.12,1.38,2.49,14.63,12.97,28.01.26,39.66-3.98,3.65-9.97,6.67-15.23,7.02-11.01.73-19.55-5.8-20.89-16.29-1.15-9,2.06-18.56,3.7-30.42-20.07-.46-39.76-.92-59.73-1.38.29-18.37.57-36.62.87-55.66,14.36,4.86,30.33,9.38,41.54-7.33,6.56-9.79,6.13-20.87-1.01-30.16-11.27-14.67-26.14-11.45-41.26-5.22.5-19.33.97-37.59,1.46-56.56,17.84-.38,37.92-.81,60.77-1.3-6.63-17.15-14.52-33.4,3.51-43.56,5.82-3.28,17.14-2.74,22.88.89,16.34,10.34,7.84,25.49,2.5,42.5,21.62.54,41.67,1.04,61.24,1.53.06,18.53.12,37.11.18,56.95Z"/>
    <g>
      <path class="cls-1" d="m112.34,194.29c-.67.25-2.91.78-4.77.87-2.01.09-3.48.74-4.71,2.35-2.33,3.04-5.54,4.64-9.31,5.01-6.83.67-11.26-5.6-8.42-12.29,1.41-3.34,2.29-6.65,2.72-10.23.91-7.51,9.66-11.24,15.73-6.75,2.41,1.78,4.96,2.65,7.86,3.26,2.15.45,4.46,1.66,6.01,3.23,3.86,3.9,2.32,9.62-2.52,13.21-1.33.99-1.91,1.1-2.58,1.35Z"/>
      <path class="cls-1" d="m86.83,162.75c.97,1.97,2.02,5.76,1.35,8.89-.99,4.66-5.37,6.65-9.45,4.18-3.68-2.24-5.69-5.53-5.53-9.92.12-3.26.95-6.32,3.08-8.89,1.74-2.09,3.86-2.4,5.73-.46,1.81,1.87,3.84,4.23,4.82,6.2Z"/>
      <path class="cls-1" d="m89.46,160.95c-.93-1.89-1.49-4.94-1.83-7.39-.33-2.31,1.04-3.72,3.33-4.06,6.4-.96,13.56,4.7,14.05,11.18.23,2.98-.44,5.72-3.31,7.24-2.88,1.52-5.62.59-7.8-1.43-1.71-1.59-3.51-3.66-4.44-5.54Z"/>
      <path class="cls-1" d="m118.06,161.86c1.72,3.51,1.76,6.38.55,9.24-.94,2.22-2.45,3.89-5,4.08-2.62.2-4.58-1.23-5.71-3.37-2.44-4.65-2.03-9.51-.1-14.21.82-2,2.78-2.39,4.85-1.32,2.67,1.38,4.37,3.69,5.41,5.58Z"/>
      <path class="cls-1" d="m70.21,186.05c-1.27-2.61-1.84-5.34-1.36-8.22.38-2.27,2.11-3.56,4.27-2.92,4.41,1.31,8.16,3.7,10.48,7.81.63,1.12.92,2.55.96,3.85.09,3.11-2.19,5.37-5.32,5.34-4.22-.04-7.16-2.15-9.04-5.86Z"/>
    </g>
    <g>
      <path class="cls-1" d="m131.02,121.89c-.67.25-2.91.78-4.77.87-2.01.09-3.48.74-4.71,2.35-2.33,3.04-5.54,4.64-9.31,5.01-6.83.67-11.26-5.6-8.42-12.29,1.41-3.34,2.29-6.65,2.72-10.23.91-7.51,9.66-11.24,15.73-6.75,2.41,1.78,4.96,2.65,7.86,3.26,2.15.45,4.46,1.66,6.01,3.23,3.86,3.9,2.32,9.62-2.52,13.21-1.33.99-1.91,1.1-2.58,1.35Z"/>
      <path class="cls-1" d="m105.51,90.35c.97,1.97,2.02,5.76,1.35,8.89-.99,4.66-5.37,6.65-9.45,4.18-3.68-2.24-5.69-5.53-5.53-9.92.12-3.26.95-6.32,3.08-8.89,1.74-2.09,3.86-2.4,5.73-.46,1.81,1.87,3.84,4.23,4.82,6.2Z"/>
      <path class="cls-1" d="m108.14,88.55c-.93-1.89-1.49-4.94-1.83-7.39-.33-2.31,1.04-3.72,3.33-4.06,6.4-.96,13.56,4.7,14.05,11.18.23,2.98-.44,5.72-3.31,7.24-2.88,1.52-5.62.59-7.8-1.43-1.71-1.59-3.51-3.66-4.44-5.54Z"/>
      <path class="cls-1" d="m136.74,89.45c1.72,3.51,1.76,6.38.55,9.24-.94,2.22-2.45,3.89-5,4.08-2.62.2-4.58-1.23-5.71-3.37-2.44-4.65-2.03-9.51-.1-14.21.82-2,2.78-2.39,4.85-1.32,2.67,1.38,4.37,3.69,5.41,5.58Z"/>
      <path class="cls-1" d="m88.89,113.65c-1.27-2.61-1.84-5.34-1.36-8.22.38-2.27,2.11-3.56,4.27-2.92,4.41,1.31,8.16,3.7,10.48,7.81.63,1.12.92,2.55.96,3.85.09,3.11-2.19,5.37-5.32,5.34-4.22-.04-7.16-2.15-9.04-5.86Z"/>
    </g>
  </g>
</svg>