<?xml version="1.0" encoding="UTF-8"?>
<svg id="Capa_1" data-name="Capa 1" xmlns="http://www.w3.org/2000/svg" viewBox="0 0 365.46 83.34">
  <defs>
    <style>
      .cls-1, .cls-2 {
        fill: none;
        stroke: #f39200;
        stroke-linecap: round;
        stroke-linejoin: round;
        stroke-width: 22px;
      }

      .cls-2, .cls-3 {
        font-family: BloomerDEMO-Regular, 'Bloomer DEMO';
        font-size: 79.33px;
      }

      .cls-4 {
        letter-spacing: -.04em;
      }

      .cls-5 {
        letter-spacing: 0em;
      }

      .cls-6 {
        letter-spacing: -.02em;
      }

      .cls-7 {
        letter-spacing: -.03em;
      }

      .cls-3 {
        fill: #fff;
      }

      .cls-8 {
        fill: #1d1d1b;
        stroke-width: 0px;
      }
    </style>
  </defs>
  <g>
    <text class="cls-2" transform="translate(178.5 67.39) scale(.95 1)"><tspan x="0" y="0">M</tspan><tspan class="cls-4" x="54.66" y="0">A</tspan><tspan class="cls-7" x="88.45" y="0">T</tspan><tspan class="cls-5" x="117.49" y="0">CH</tspan></text>
    <text class="cls-2" transform="translate(0 67.39) scale(.95 1)"><tspan x="0" y="0">P</tspan><tspan class="cls-6" x="35.22" y="0">E</tspan><tspan x="65.21" y="0">T</tspan></text>
    <g>
      <path class="cls-1" d="m158.83,67.28c-.94.36-4.08,1.09-6.68,1.21-2.81.13-4.87,1.03-6.59,3.29-3.25,4.25-7.74,6.48-13.03,7-9.56.94-15.75-7.83-11.78-17.19,1.98-4.67,3.2-9.3,3.81-14.32,1.27-10.51,13.5-15.72,22-9.44,3.38,2.5,6.94,3.71,10.99,4.56,3.01.63,6.24,2.33,8.4,4.51,5.39,5.46,3.25,13.45-3.52,18.48-1.86,1.38-2.67,1.53-3.6,1.89Z"/>
      <path class="cls-1" d="m123.15,23.18c1.36,2.76,2.82,8.05,1.89,12.44-1.39,6.52-7.51,9.31-13.22,5.84-5.15-3.13-7.95-7.73-7.73-13.88.17-4.56,1.32-8.84,4.31-12.43,2.43-2.92,5.4-3.35,8.01-.64,2.53,2.62,5.37,5.92,6.74,8.68Z"/>
      <path class="cls-1" d="m126.82,20.66c-1.3-2.64-2.08-6.91-2.57-10.34-.46-3.23,1.46-5.2,4.66-5.68,8.95-1.34,18.96,6.58,19.65,15.64.32,4.17-.61,8.01-4.63,10.13-4.03,2.13-7.86.83-10.9-2-2.4-2.23-4.91-5.12-6.21-7.75Z"/>
      <path class="cls-1" d="m166.83,21.92c2.41,4.91,2.46,8.92.76,12.93-1.31,3.11-3.43,5.44-7,5.71-3.67.28-6.41-1.73-7.98-4.72-3.42-6.51-2.84-13.3-.14-19.87,1.15-2.8,3.89-3.34,6.79-1.84,3.74,1.93,6.11,5.16,7.56,7.8Z"/>
      <path class="cls-1" d="m99.9,55.77c-1.77-3.66-2.58-7.48-1.91-11.5.53-3.18,2.95-4.99,5.97-4.09,6.17,1.83,11.42,5.17,14.66,10.92.88,1.56,1.29,3.57,1.35,5.39.13,4.36-3.06,7.51-7.44,7.47-5.9-.05-10.02-3.01-12.64-8.19Z"/>
    </g>
  </g>
  <g>
    <text class="cls-3" transform="translate(178.5 67.39) scale(.95 1)"><tspan x="0" y="0">M</tspan><tspan class="cls-4" x="54.66" y="0">A</tspan><tspan class="cls-7" x="88.45" y="0">T</tspan><tspan class="cls-5" x="117.49" y="0">CH</tspan></text>
    <text class="cls-3" transform="translate(0 67.39) scale(.95 1)"><tspan x="0" y="0">P</tspan><tspan class="cls-6" x="35.22" y="0">E</tspan><tspan x="65.21" y="0">T</tspan></text>
    <g>
      <path class="cls-8" d="m158.83,67.28c-.94.36-4.08,1.09-6.68,1.21-2.81.13-4.87,1.03-6.59,3.29-3.25,4.25-7.74,6.48-13.03,7-9.56.94-15.75-7.83-11.78-17.19,1.98-4.67,3.2-9.3,3.81-14.32,1.27-10.51,13.5-15.72,22-9.44,3.38,2.5,6.94,3.71,10.99,4.56,3.01.63,6.24,2.33,8.4,4.51,5.39,5.46,3.25,13.45-3.52,18.48-1.86,1.38-2.67,1.53-3.6,1.89Z"/>
      <path class="cls-8" d="m123.15,23.18c1.36,2.76,2.82,8.05,1.89,12.44-1.39,6.52-7.51,9.31-13.22,5.84-5.15-3.13-7.95-7.73-7.73-13.88.17-4.56,1.32-8.84,4.31-12.43,2.43-2.92,5.4-3.35,8.01-.64,2.53,2.62,5.37,5.92,6.74,8.68Z"/>
      <path class="cls-8" d="m126.82,20.66c-1.3-2.64-2.08-6.91-2.57-10.34-.46-3.23,1.46-5.2,4.66-5.68,8.95-1.34,18.96,6.58,19.65,15.64.32,4.17-.61,8.01-4.63,10.13-4.03,2.13-7.86.83-10.9-2-2.4-2.23-4.91-5.12-6.21-7.75Z"/>
      <path class="cls-8" d="m166.83,21.92c2.41,4.91,2.46,8.92.76,12.93-1.31,3.11-3.43,5.44-7,5.71-3.67.28-6.41-1.73-7.98-4.72-3.42-6.51-2.84-13.3-.14-19.87,1.15-2.8,3.89-3.34,6.79-1.84,3.74,1.93,6.11,5.16,7.56,7.8Z"/>
      <path class="cls-8" d="m99.9,55.77c-1.77-3.66-2.58-7.48-1.91-11.5.53-3.18,2.95-4.99,5.97-4.09,6.17,1.83,11.42,5.17,14.66,10.92.88,1.56,1.29,3.57,1.35,5.39.13,4.36-3.06,7.51-7.44,7.47-5.9-.05-10.02-3.01-12.64-8.19Z"/>
    </g>
  </g>
</svg>