<?xml version="1.0" encoding="UTF-8"?>
<svg id="Capa_1" data-name="Capa 1" xmlns="http://www.w3.org/2000/svg" viewBox="0 0 336.53 295.74">
  <defs>
    <style>
      .cls-1 {
        fill: #f4c863;
      }

      .cls-1, .cls-2 {
        stroke-width: 0px;
      }

      .cls-2 {
        fill: #f29100;
      }
    </style>
  </defs>
  <g>
    <g>
      <path class="cls-1" d="m127.18,93.17l10.12,18.87s4,6.43-1.16,9.08c-2.87,1.47-5.08.18-6.48-1.26,1.37,14.73,2.81,30.74,3.76,46.64.09,1.42.15,2.85.2,4.27,1.29-1.74,2.82-3.45,4.65-5.12,11.51-8.72,22.86-16.99,25.58-37.77,3.42-26.07-3.55-32.79-9.58-46.2-13.21-21.07-26.2-41.09-37.36-52.48-9.1-5.83-20.87-.88-17.04,13.07l15.06,28.07c6.37,6.43,11.09,16.53,12.25,22.83Z"/>
      <path class="cls-1" d="m101.68,236.96c-4.79-7.75-19.28-25.39-18.05-64.82.62-19.83,4.07-31.11,7.35-42.42-14.91-25.66-28.99-49.16-40.29-65.48-9.72-8.25-21.11-.92-17.06,15.81,10.59,21.13,26.79,48.29,45.66,78.31,0,0,2.96,6.97-2.65,9.27-5.61,2.3-8.58-2.72-8.58-2.72-10.04-15.04-20.96-32.1-33.71-53.47-11.42-5.16-17.75,1.59-14.92,13.94,10.32,33.41,37.6,70.29,68.08,109.1,15.65,18.12,31.27,32.36,64.98,38.9,0,0,4.81,1.13,12.59,1.04-16.86-1.84-41.49-9.83-63.41-37.45Z"/>
      <path class="cls-1" d="m97.16,65.97c.68-.39,1.35-.68,2.03-.93-6.84-11.92-13.45-22.97-19.76-32.84-11.69-13.29-24.98-3.99-23.26,12.35,12.6,23.12,25.59,46.26,38.82,69.41.95-4.85,1.71-10.22,2.1-16.57.88-14.28-3.48-27.24.08-31.42Z"/>
    </g>
    <path class="cls-2" d="m303.43,111.74c-12.72,21.39-23.61,38.46-33.64,53.51,0,0-2.97,5.02-8.58,2.73-5.61-2.29-2.66-9.26-2.66-9.26,18.83-30.04,35-57.23,45.56-78.37,4.04-16.73-7.37-24.05-17.08-15.79-11.23,16.26-25.21,39.65-40.02,65.21-2.16,3.73-4.34,7.5-6.52,11.3,0,0-3.85,4.17-7.39,1.1-3.54-3.07-1.34-8.53-1.34-8.53,3.75-6.52,7.47-13.03,11.19-19.55,13.15-23.08,26.06-46.16,38.59-69.22,1.69-16.34-11.61-25.63-23.28-12.32-6.16,9.66-12.61,20.45-19.27,32.08-9.35,16.33-19.13,34.33-29.15,53.26,0,0-.63,1.3-1.8,2.47-1.4,1.4-3.57,2.62-6.38,1.18-5.17-2.64-1.17-9.08-1.17-9.08l9.92-18.54,13.45-25.14,13.98-26.14c3.82-13.96-7.96-18.9-17.05-13.05-11.15,11.41-24.11,31.44-37.3,52.53-6.01,13.42-12.97,20.15-9.52,46.22,2.75,20.77,14.11,29.03,25.63,37.74,1.82,1.65,3.35,3.36,4.63,5.08,8.14,10.92,5.91,22.51-.5,25.68-2.06,1.02-4.56,1.17-7.28.14,2.76,5.75,2.85,11.72,1.36,16.33-2.51,7.78-9.51,11.67-15.73,4.03-.46,7.02-6.87,10.2-14.09,7.97-4.96-1.53-10.3-5.6-14.37-12.72,0,0-2.71,4.42-8.95,3.52-1.58-.4-2.92-1.06-4.07-1.92-4.39-3.29-5.93-9.73-6.49-17.82-.52-7.53-.18-16.47-.49-25.61-.05-1.42-.11-2.84-.2-4.27-.95-15.9-2.39-31.91-3.76-46.64-.85-9.19-1.67-17.89-2.33-25.75-.04-.3-.09-.62-.15-.94-1.16-6.3-5.88-16.41-12.25-22.83-4.62-4.66-10.11-7.37-15.74-5.3-.67.25-1.35.54-2.03.93-3.56,4.18.8,17.14-.08,31.42-.39,6.35-1.14,11.72-2.1,16.57-1.13,5.75-2.55,10.77-4,15.76-3.29,11.32-6.74,22.59-7.35,42.42-1.23,39.42,13.26,57.07,18.05,64.82,21.92,27.62,46.55,35.61,63.41,37.45,12.26,1.34,20.4-.58,20.4-.58,33.7-6.58,49.3-20.84,64.93-38.98,30.43-38.85,57.67-75.76,67.94-109.18,2.82-12.35-3.52-19.09-14.94-13.92Z"/>
  </g>
  <g>
    <path class="cls-1" d="m164.42,157.54c-.64.35-2.54,1.76-3.82,3.19-1.38,1.55-2.87,2.25-5,2.03-4.01-.41-7.41.98-10.17,3.74-5,5-2.74,13.27,4.59,16.01,3.66,1.37,6.94,3.15,10.16,5.49,6.75,4.91,15.5.66,15.78-7.6.11-3.28,1.05-5.98,2.44-8.78,1.03-2.07,1.54-4.84,1.27-7.26-.69-6.03-6.37-9.09-12.47-7.89-1.68.33-2.14.71-2.78,1.06Z"/>
    <path class="cls-1" d="m175.16,205.24c-.98-2.26-3.4-5.95-6.41-7.77-4.46-2.7-8.95-.68-9.58,4.47-.57,4.64.83,8.73,4.54,11.9,2.75,2.35,5.8,3.98,9.29,4.19,2.84.17,4.48-1.31,4.11-4.26-.36-2.86-.97-6.27-1.95-8.53Z"/>
    <path class="cls-1" d="m178.34,204.47c.94,2.17,3.08,4.9,4.87,7.03,1.68,2,3.73,1.95,5.5.37,4.95-4.43,4.97-14.44-.02-19.71-2.29-2.42-4.98-3.95-8.09-2.77-3.13,1.18-4.15,4.08-3.91,7.35.19,2.57.71,5.57,1.65,7.73Z"/>
    <path class="cls-1" d="m199.44,179.46c-1.76-4.02-4.08-6.2-7.22-7.38-2.43-.91-4.78-.94-6.6.96-1.87,1.96-1.97,4.61-.95,7.13,2.22,5.46,6.47,8.77,11.58,10.75,2.18.84,3.77-.44,4.24-2.92.61-3.19-.18-6.29-1.05-8.54Z"/>
    <path class="cls-1" d="m142.03,202.44c1.32,2.98,3.18,5.5,5.85,7.27,2.11,1.4,4.29.98,5.18-1.24,1.8-4.53,2.29-9.35.43-14.3-.51-1.35-1.49-2.66-2.53-3.67-2.49-2.41-5.83-2.27-7.84.27-2.72,3.43-2.9,7.38-1.08,11.67Z"/>
  </g>
</svg>