<?xml version="1.0" encoding="UTF-8"?>
<svg id="Capa_1" data-name="Capa 1" xmlns="http://www.w3.org/2000/svg" viewBox="0 0 274 192.86">
  <defs>
    <style>
      .cls-1 {
        letter-spacing: -.03em;
      }

      .cls-2, .cls-3 {
        fill: none;
        stroke: #000;
        stroke-linecap: round;
        stroke-linejoin: round;
        stroke-width: 13px;
      }

      .cls-2, .cls-4 {
        font-family: BloomerDEMO-Regular, 'Bloomer DEMO';
        font-size: 56.72px;
      }

      .cls-4 {
        fill: #fff;
      }

      .cls-5 {
        letter-spacing: -.04em;
      }

      .cls-6 {
        fill: #f29100;
        stroke-width: 0px;
      }
    </style>
  </defs>
  <g>
    <path class="cls-3" d="m260.48,87.91c-9.89-19.33-26.79-11.08-46.9-4.04,2.6-23.48,4.83-43.54,6.69-60.35-24.41-.91-41.73-1.59-60.87-2.3,6.23,15.31,8.43,30.21-6.43,41.34-9.9,7.42-21.47,7.38-31.31-.19-14.87-11.44-12.76-26.32-6.88-40.92-19.03.4-36.1.76-54.71,1.15-.49,18.62-1,38.29-1.6,61.36-10.3-4.79-20.09-9.01-28.48-7.95-5.78.73-10.89,3.94-15,11.3-.22.4-.39.87-.57,1.31-.33.78-.61,1.62-.83,2.52-1.42,5.72-.74,13.35,1.94,17.7,8.53,13.84,20.34,11.53,33.57,6.32,3.03-1.19,6.13-2.53,9.29-3.87.68,22.99,1.28,43.45,1.72,58.57,19.3,1.51,37.43,2.93,55.94,4.38-7.2-22.9-5.55-33.59,6.47-42.04,9.86-6.93,20.69-6.82,30.04.01,15.33,11.22,12.41,26.45,5.33,42.48,19.92-.86,38.3-1.64,56.98-2.45.52-17.71,1.12-38.11,1.78-60.14,16.57,5.44,31.11,13.73,41.57-1.4,3.91-5.66,5.28-16.93,2.27-22.81Z"/>
    <text class="cls-2" transform="translate(69.26 116.85) scale(.95 1)"><tspan x="0" y="0">M</tspan><tspan class="cls-5" x="39.08" y="0">A</tspan><tspan class="cls-1" x="63.24" y="0">T</tspan><tspan x="84" y="0">CH</tspan></text>
  </g>
  <g>
    <path class="cls-6" d="m260.48,87.91c-9.89-19.33-26.79-11.08-46.9-4.04,2.6-23.48,4.83-43.54,6.69-60.35-24.41-.91-41.73-1.59-60.87-2.3,6.23,15.31,8.43,30.21-6.43,41.34-9.9,7.42-21.47,7.38-31.31-.19-14.87-11.44-12.76-26.32-6.88-40.92-19.03.4-36.1.76-54.71,1.15-.49,18.62-1,38.29-1.6,61.36-10.3-4.79-20.09-9.01-28.48-7.95-5.78.73-10.89,3.94-15,11.3-.22.4-.39.87-.57,1.31-.33.78-.61,1.62-.83,2.52-1.42,5.72-.74,13.35,1.94,17.7,8.53,13.84,20.34,11.53,33.57,6.32,3.03-1.19,6.13-2.53,9.29-3.87.68,22.99,1.28,43.45,1.72,58.57,19.3,1.51,37.43,2.93,55.94,4.38-7.2-22.9-5.55-33.59,6.47-42.04,9.86-6.93,20.69-6.82,30.04.01,15.33,11.22,12.41,26.45,5.33,42.48,19.92-.86,38.3-1.64,56.98-2.45.52-17.71,1.12-38.11,1.78-60.14,16.57,5.44,31.11,13.73,41.57-1.4,3.91-5.66,5.28-16.93,2.27-22.81Z"/>
    <text class="cls-4" transform="translate(69.26 116.85) scale(.95 1)"><tspan x="0" y="0">M</tspan><tspan class="cls-5" x="39.08" y="0">A</tspan><tspan class="cls-1" x="63.24" y="0">T</tspan><tspan x="84" y="0">CH</tspan></text>
  </g>
</svg>