<?xml version="1.0" encoding="UTF-8"?>
<svg id="Capa_1" data-name="Capa 1" xmlns="http://www.w3.org/2000/svg" viewBox="0 0 205.86 285.43">
  <defs>
    <style>
      .cls-1 {
        fill: #fff;
      }

      .cls-1, .cls-2 {
        stroke-width: 0px;
      }

      .cls-3 {
        fill: none;
        stroke: #000;
        stroke-linecap: round;
        stroke-linejoin: round;
        stroke-width: 13px;
      }

      .cls-2 {
        fill: #f29100;
      }
    </style>
  </defs>
  <g>
    <path class="cls-3" d="m182.94,177.77c.09,6.3.02,12.6.02,18.9,0,.32,0,.64,0,1-3.5,1.01-6.93,2.05-10.38,2.99-1.76.48-3.56.81-5.35,1.16-2.92.58-5.83,1.21-8.76,1.68-2.61.42-5.24.72-7.87.94-3.54.3-7.09.5-10.63.7-1.21.07-1.22,0-1.22-1.18,0-3.06.09-6.13-.02-9.18-.08-2.1-.25-4.23-.73-6.26-.62-2.66-1.86-5.11-3.44-7.37-2.63-3.76-6.07-6.45-10.31-8.15-.57-.23-1.17-.38-1.74-.59-.28-.1-.53-.27-.91-.47,4.67-4.35,6.77-9.65,6.14-15.8-.62-6.09-3.86-10.72-9.1-14.01,5.21-2.17,10.49-2.39,15.82-2.33,1.95.02,3.89.02,5.84.01.15-.53.3-1.07.49-1.6-13.57.05-24.91-11.18-24.84-24.95.07-13.44,11.27-25.05,25.47-24.62,13.19.4,24.17,10.79,24.1,25-.01,2.18-.33,4.29-.86,6.3,6.76-.15,13.86,2.07,20.8,4.82.31-19.39.61-37.62.9-55.93-19.87-.51-39.55-1.01-59.87-1.52,3.24-8.54,9.05-17.51,5.6-30.19-2.82-10.37-7.83-16.14-20.82-16.13-8.29.43-10.93,2.19-15.03,5.64-13.79,11.61-6.11,29.43-1.45,40.73-22.17.54-44.49.08-59.61.44-1.15,17.67-2.11,35.23-2.11,57.65,7.41-3.06,14.48-5.26,21.04-5.33-.59-2.16-.9-4.42-.89-6.79.03-6.79,2.52-12.75,7.45-17.55,4.89-4.77,10.81-7.22,17.61-7.15,13.18.13,24.6,10.8,24.49,24.85.09,13.48-10.76,24.19-23.78,24.68.2.55.38,1.1.54,1.66,2.77,0,5.55-.02,8.32.01,3.97.04,7.9.5,11.61,2.06.13.06.28.07.68.15-.52.4-.85.69-1.21.94-3.07,2.05-5.31,4.81-6.64,8.23-1.49,3.81-1.82,7.72-.67,11.73.91,3.19,2.45,5.96,4.82,8.28.22.22.33.56.49.85-.28.14-.54.31-.83.41-3.71,1.22-6.91,3.21-9.64,6.01-2.21,2.25-3.82,4.87-4.93,7.78-.59,1.55-1.05,3.23-1.15,4.88-.28,4.62-.33,9.25-.48,14.01-1.46,0-3.04.13-4.6-.02-5.28-.53-10.56-1.13-15.82-1.78-2.41-.3-4.8-.74-7.18-1.22-1.75-.35-3.47-.87-5.2-1.32-1.93-.5-3.86-.97-5.77-1.5-1.8-.5-3.58-1.07-5.43-1.62-.02-.26-.07-.52-.07-.77,0-9.04-.04-18.08.03-27.11,0-.57.05-1.14.11-1.71-.83-.33-1.66-.66-2.5-1.01.16,19.53.31,38.1.46,56.58,19.7.49,39.74.99,61.4,1.53-5.52,17.01-13.88,32.14,2.41,42.5,5.73,3.64,17.03,4.16,22.89.9,18.22-10.15,9.81-26.48,3.8-43.59,22.55-.47,42.62-.9,60.42-1.27.44-18.99.86-37.25,1.3-56.6-1.12.49-2.25.95-3.37,1.39.31,3.09.1,6.18.14,9.27Z"/>
    <path class="cls-3" d="m35.85,196.9c0,.26.05.51.07.77,1.85.56,3.63,1.12,5.43,1.62,1.92.53,3.85,1,5.77,1.5,1.73.45,3.45.96,5.2,1.32,2.38.48,4.77.92,7.18,1.22,5.27.65,10.54,1.25,15.82,1.78,1.56.16,3.15.02,4.6.02.15-4.76.2-9.39.48-14.01.1-1.65.56-3.33,1.15-4.88,1.11-2.9,2.72-5.53,4.93-7.78,2.74-2.79,5.94-4.79,9.64-6.01.29-.1.55-.27.83-.41-.16-.28-.26-.63-.49-.85-2.38-2.32-3.91-5.09-4.82-8.28-1.14-4.01-.82-7.92.67-11.73,1.34-3.41,3.57-6.17,6.64-8.23.37-.24.7-.54,1.21-.94-.39-.09-.54-.1-.68-.15-3.71-1.56-7.64-2.02-11.61-2.06-2.77-.03-5.55-.02-8.32-.01,2.11,7.21.64,14.65-4.15,21.32-10.57,14.71-24.79,12.72-39.43,6.95-.06.57-.1,1.13-.11,1.71-.07,9.04-.03,18.07-.03,27.11Z"/>
    <path class="cls-3" d="m145.1,161.9c-5.24-6.86-6.88-14.63-4.79-22.09-1.95,0-3.89,0-5.84-.01-5.33-.06-10.61.17-15.82,2.33,5.24,3.3,8.48,7.93,9.1,14.01.63,6.15-1.47,11.45-6.14,15.8.38.2.63.37.91.47.57.21,1.17.37,1.74.59,4.24,1.69,7.68,4.39,10.31,8.15,1.58,2.26,2.82,4.71,3.44,7.37.47,2.04.65,4.17.73,6.26.11,3.06.02,6.12.02,9.18,0,1.19,0,1.25,1.22,1.18,3.55-.2,7.09-.4,10.63-.7,2.63-.22,5.26-.52,7.87-.94,2.94-.47,5.85-1.1,8.76-1.68,1.79-.36,3.59-.68,5.35-1.16,3.46-.94,6.89-1.98,10.38-2.99,0-.36,0-.68,0-1,0-6.3.06-12.6-.02-18.9-.04-3.09.18-6.18-.14-9.27-13.84,5.46-27.36,6.94-37.7-6.6Z"/>
    <path class="cls-3" d="m141.44,88.64c-14.2-.43-25.4,11.18-25.47,24.62-.07,13.77,11.26,25,24.84,24.95.92-2.61,2.31-5.17,4.17-7.63,5.82-7.69,12.58-10.49,19.7-10.65.53-2.01.85-4.11.86-6.3.07-14.21-10.91-24.6-24.1-25Z"/>
    <path class="cls-3" d="m102.8,113.48c.11-14.05-11.31-24.72-24.49-24.85-6.8-.07-12.72,2.38-17.61,7.15-4.93,4.81-7.42,10.76-7.45,17.55-.01,2.37.3,4.63.89,6.79,7.82-.09,14.93,2.84,21.02,11.01,1.7,2.28,2.98,4.64,3.86,7.03,13.02-.49,23.87-11.21,23.78-24.68Z"/>
    <path class="cls-3" d="m134.19,193.42c.03-2.78-.47-5.45-1.55-8-1.12-2.64-2.84-4.88-5.05-6.72-3.25-2.71-6.96-4.28-11.23-4.34-2.34-.03-4.68,0-7.97,0-2.86.25-6.72-.53-10.48.68-2.17.7-4.18,1.7-5.98,3.09-2.78,2.14-4.92,4.78-6.07,8.1-.58,1.67-1.1,3.45-1.17,5.2-.17,4.26-.07,8.53-.07,12.8,0,1.06.04,2.12,0,3.18-.03.72.22,1.12.97,1.14.14,0,.28.02.41.06,1.87.54,3.72,1.18,5.62,1.61,2.68.6,5.39,1.13,8.11,1.53,2.85.41,5.72.74,8.59.89,2.27.12,4.56-.03,6.83-.19,2.27-.16,4.52-.44,6.78-.72,3.67-.46,7.16-1.59,10.6-2.9,1.22-.46,1.74-1.15,1.7-2.59-.13-4.26-.08-8.53-.04-12.8Z"/>
    <path class="cls-3" d="m109.35,173.34c8.42-.14,14.76-6.74,14.62-14.82-.14-8.19-6.64-14.38-14.49-14.36-8.45.02-14.71,6.45-14.67,14.7.04,8.13,6.5,14.3,14.54,14.48Z"/>
  </g>
  <g>
    <path class="cls-2" d="m182.94,177.77c.09,6.3.02,12.6.02,18.9,0,.32,0,.64,0,1-3.5,1.01-6.93,2.05-10.38,2.99-1.76.48-3.56.81-5.35,1.16-2.92.58-5.83,1.21-8.76,1.68-2.61.42-5.24.72-7.87.94-3.54.3-7.09.5-10.63.7-1.21.07-1.22,0-1.22-1.18,0-3.06.09-6.13-.02-9.18-.08-2.1-.25-4.23-.73-6.26-.62-2.66-1.86-5.11-3.44-7.37-2.63-3.76-6.07-6.45-10.31-8.15-.57-.23-1.17-.38-1.74-.59-.28-.1-.53-.27-.91-.47,4.67-4.35,6.77-9.65,6.14-15.8-.62-6.09-3.86-10.72-9.1-14.01,5.21-2.17,10.49-2.39,15.82-2.33,1.95.02,3.89.02,5.84.01.15-.53.3-1.07.49-1.6-13.57.05-24.91-11.18-24.84-24.95.07-13.44,11.27-25.05,25.47-24.62,13.19.4,24.17,10.79,24.1,25-.01,2.18-.33,4.29-.86,6.3,6.76-.15,13.86,2.07,20.8,4.82.31-19.39.61-37.62.9-55.93-19.87-.51-39.55-1.01-59.87-1.52,3.24-8.54,9.05-17.51,5.6-30.19-2.82-10.37-7.83-16.14-20.82-16.13-8.29.43-10.93,2.19-15.03,5.64-13.79,11.61-6.11,29.43-1.45,40.73-22.17.54-44.49.08-59.61.44-1.15,17.67-2.11,35.23-2.11,57.65,7.41-3.06,14.48-5.26,21.04-5.33-.59-2.16-.9-4.42-.89-6.79.03-6.79,2.52-12.75,7.45-17.55,4.89-4.77,10.81-7.22,17.61-7.15,13.18.13,24.6,10.8,24.49,24.85.09,13.48-10.76,24.19-23.78,24.68.2.55.38,1.1.54,1.66,2.77,0,5.55-.02,8.32.01,3.97.04,7.9.5,11.61,2.06.13.06.28.07.68.15-.52.4-.85.69-1.21.94-3.07,2.05-5.31,4.81-6.64,8.23-1.49,3.81-1.82,7.72-.67,11.73.91,3.19,2.45,5.96,4.82,8.28.22.22.33.56.49.85-.28.14-.54.31-.83.41-3.71,1.22-6.91,3.21-9.64,6.01-2.21,2.25-3.82,4.87-4.93,7.78-.59,1.55-1.05,3.23-1.15,4.88-.28,4.62-.33,9.25-.48,14.01-1.46,0-3.04.13-4.6-.02-5.28-.53-10.56-1.13-15.82-1.78-2.41-.3-4.8-.74-7.18-1.22-1.75-.35-3.47-.87-5.2-1.32-1.93-.5-3.86-.97-5.77-1.5-1.8-.5-3.58-1.07-5.43-1.62-.02-.26-.07-.52-.07-.77,0-9.04-.04-18.08.03-27.11,0-.57.05-1.14.11-1.71-.83-.33-1.66-.66-2.5-1.01.16,19.53.31,38.1.46,56.58,19.7.49,39.74.99,61.4,1.53-5.52,17.01-13.88,32.14,2.41,42.5,5.73,3.64,17.03,4.16,22.89.9,18.22-10.15,9.81-26.48,3.8-43.59,22.55-.47,42.62-.9,60.42-1.27.44-18.99.86-37.25,1.3-56.6-1.12.49-2.25.95-3.37,1.39.31,3.09.1,6.18.14,9.27Z"/>
    <path class="cls-1" d="m35.85,196.9c0,.26.05.51.07.77,1.85.56,3.63,1.12,5.43,1.62,1.92.53,3.85,1,5.77,1.5,1.73.45,3.45.96,5.2,1.32,2.38.48,4.77.92,7.18,1.22,5.27.65,10.54,1.25,15.82,1.78,1.56.16,3.15.02,4.6.02.15-4.76.2-9.39.48-14.01.1-1.65.56-3.33,1.15-4.88,1.11-2.9,2.72-5.53,4.93-7.78,2.74-2.79,5.94-4.79,9.64-6.01.29-.1.55-.27.83-.41-.16-.28-.26-.63-.49-.85-2.38-2.32-3.91-5.09-4.82-8.28-1.14-4.01-.82-7.92.67-11.73,1.34-3.41,3.57-6.17,6.64-8.23.37-.24.7-.54,1.21-.94-.39-.09-.54-.1-.68-.15-3.71-1.56-7.64-2.02-11.61-2.06-2.77-.03-5.55-.02-8.32-.01,2.11,7.21.64,14.65-4.15,21.32-10.57,14.71-24.79,12.72-39.43,6.95-.06.57-.1,1.13-.11,1.71-.07,9.04-.03,18.07-.03,27.11Z"/>
    <path class="cls-1" d="m145.1,161.9c-5.24-6.86-6.88-14.63-4.79-22.09-1.95,0-3.89,0-5.84-.01-5.33-.06-10.61.17-15.82,2.33,5.24,3.3,8.48,7.93,9.1,14.01.63,6.15-1.47,11.45-6.14,15.8.38.2.63.37.91.47.57.21,1.17.37,1.74.59,4.24,1.69,7.68,4.39,10.31,8.15,1.58,2.26,2.82,4.71,3.44,7.37.47,2.04.65,4.17.73,6.26.11,3.06.02,6.12.02,9.18,0,1.19,0,1.25,1.22,1.18,3.55-.2,7.09-.4,10.63-.7,2.63-.22,5.26-.52,7.87-.94,2.94-.47,5.85-1.1,8.76-1.68,1.79-.36,3.59-.68,5.35-1.16,3.46-.94,6.89-1.98,10.38-2.99,0-.36,0-.68,0-1,0-6.3.06-12.6-.02-18.9-.04-3.09.18-6.18-.14-9.27-13.84,5.46-27.36,6.94-37.7-6.6Z"/>
    <path class="cls-1" d="m141.44,88.64c-14.2-.43-25.4,11.18-25.47,24.62-.07,13.77,11.26,25,24.84,24.95.92-2.61,2.31-5.17,4.17-7.63,5.82-7.69,12.58-10.49,19.7-10.65.53-2.01.85-4.11.86-6.3.07-14.21-10.91-24.6-24.1-25Z"/>
    <path class="cls-1" d="m102.8,113.48c.11-14.05-11.31-24.72-24.49-24.85-6.8-.07-12.72,2.38-17.61,7.15-4.93,4.81-7.42,10.76-7.45,17.55-.01,2.37.3,4.63.89,6.79,7.82-.09,14.93,2.84,21.02,11.01,1.7,2.28,2.98,4.64,3.86,7.03,13.02-.49,23.87-11.21,23.78-24.68Z"/>
    <path class="cls-1" d="m134.19,193.42c.03-2.78-.47-5.45-1.55-8-1.12-2.64-2.84-4.88-5.05-6.72-3.25-2.71-6.96-4.28-11.23-4.34-2.34-.03-4.68,0-7.97,0-2.86.25-6.72-.53-10.48.68-2.17.7-4.18,1.7-5.98,3.09-2.78,2.14-4.92,4.78-6.07,8.1-.58,1.67-1.1,3.45-1.17,5.2-.17,4.26-.07,8.53-.07,12.8,0,1.06.04,2.12,0,3.18-.03.72.22,1.12.97,1.14.14,0,.28.02.41.06,1.87.54,3.72,1.18,5.62,1.61,2.68.6,5.39,1.13,8.11,1.53,2.85.41,5.72.74,8.59.89,2.27.12,4.56-.03,6.83-.19,2.27-.16,4.52-.44,6.78-.72,3.67-.46,7.16-1.59,10.6-2.9,1.22-.46,1.74-1.15,1.7-2.59-.13-4.26-.08-8.53-.04-12.8Z"/>
    <path class="cls-1" d="m109.35,173.34c8.42-.14,14.76-6.74,14.62-14.82-.14-8.19-6.64-14.38-14.49-14.36-8.45.02-14.71,6.45-14.67,14.7.04,8.13,6.5,14.3,14.54,14.48Z"/>
  </g>
</svg>